<mxfile host="app.diagrams.net" modified="2023-04-04T18:48:03.910Z" agent="Mozilla/5.0 (Windows NT 10.0; Win64; x64) AppleWebKit/537.36 (KHTML, like Gecko) Chrome/111.0.0.0 Safari/537.36" etag="NC54G2N2qS3m4rmH04Yt" version="21.1.4" type="google">
  <diagram name="Página-1" id="_PyJUcT2TGkIRCnZayrm">
    <mxGraphModel dx="1434" dy="796" grid="1" gridSize="15" guides="1" tooltips="1" connect="1" arrows="1" fold="1" page="1" pageScale="1" pageWidth="827" pageHeight="1169" math="0" shadow="0">
      <root>
        <mxCell id="0" />
        <mxCell id="1" parent="0" />
        <mxCell id="rx__fQTCFpKlSlH03edI-3" style="edgeStyle=orthogonalEdgeStyle;rounded=0;orthogonalLoop=1;jettySize=auto;html=1;exitX=0.5;exitY=1;exitDx=0;exitDy=0;entryX=0.5;entryY=0;entryDx=0;entryDy=0;entryPerimeter=0;" edge="1" parent="1" source="rx__fQTCFpKlSlH03edI-1" target="rx__fQTCFpKlSlH03edI-2">
          <mxGeometry relative="1" as="geometry" />
        </mxCell>
        <mxCell id="rx__fQTCFpKlSlH03edI-1" value="&lt;font style=&quot;font-size: 21px;&quot;&gt;Inicio&lt;/font&gt;" style="ellipse;whiteSpace=wrap;html=1;" vertex="1" parent="1">
          <mxGeometry x="330" y="75" width="120" height="80" as="geometry" />
        </mxCell>
        <mxCell id="rx__fQTCFpKlSlH03edI-6" style="edgeStyle=orthogonalEdgeStyle;rounded=0;orthogonalLoop=1;jettySize=auto;html=1;exitX=0.5;exitY=1;exitDx=0;exitDy=0;exitPerimeter=0;entryX=0.484;entryY=0.133;entryDx=0;entryDy=0;entryPerimeter=0;" edge="1" parent="1" source="rx__fQTCFpKlSlH03edI-2" target="rx__fQTCFpKlSlH03edI-5">
          <mxGeometry relative="1" as="geometry" />
        </mxCell>
        <mxCell id="rx__fQTCFpKlSlH03edI-2" value="&lt;font style=&quot;font-size: 17px;&quot;&gt;&quot;Informe três notas&quot;&lt;/font&gt;" style="strokeWidth=2;html=1;shape=mxgraph.flowchart.display;whiteSpace=wrap;" vertex="1" parent="1">
          <mxGeometry x="225" y="225" width="315" height="120" as="geometry" />
        </mxCell>
        <mxCell id="rx__fQTCFpKlSlH03edI-9" style="edgeStyle=orthogonalEdgeStyle;rounded=0;orthogonalLoop=1;jettySize=auto;html=1;entryX=0.5;entryY=0;entryDx=0;entryDy=0;entryPerimeter=0;" edge="1" parent="1" source="rx__fQTCFpKlSlH03edI-4" target="rx__fQTCFpKlSlH03edI-8">
          <mxGeometry relative="1" as="geometry" />
        </mxCell>
        <mxCell id="rx__fQTCFpKlSlH03edI-4" value="&lt;font style=&quot;font-size: 16px;&quot;&gt;média &amp;lt;- (nota1 + nota2 + nota3) / 3&lt;/font&gt;" style="rounded=1;whiteSpace=wrap;html=1;absoluteArcSize=1;arcSize=14;strokeWidth=2;" vertex="1" parent="1">
          <mxGeometry x="232" y="535" width="316" height="100" as="geometry" />
        </mxCell>
        <mxCell id="rx__fQTCFpKlSlH03edI-7" style="edgeStyle=orthogonalEdgeStyle;rounded=0;orthogonalLoop=1;jettySize=auto;html=1;entryX=0.5;entryY=0;entryDx=0;entryDy=0;" edge="1" parent="1" source="rx__fQTCFpKlSlH03edI-5" target="rx__fQTCFpKlSlH03edI-4">
          <mxGeometry relative="1" as="geometry" />
        </mxCell>
        <mxCell id="rx__fQTCFpKlSlH03edI-5" value="&lt;font style=&quot;font-size: 18px;&quot;&gt;nota1,nota2,nota3&lt;/font&gt;" style="html=1;strokeWidth=2;shape=manualInput;whiteSpace=wrap;rounded=1;size=26;arcSize=11;" vertex="1" parent="1">
          <mxGeometry x="262.5" y="390" width="255" height="90" as="geometry" />
        </mxCell>
        <mxCell id="rx__fQTCFpKlSlH03edI-11" style="edgeStyle=orthogonalEdgeStyle;rounded=0;orthogonalLoop=1;jettySize=auto;html=1;exitX=1;exitY=0.5;exitDx=0;exitDy=0;exitPerimeter=0;entryX=0.5;entryY=0;entryDx=0;entryDy=0;entryPerimeter=0;" edge="1" parent="1" source="rx__fQTCFpKlSlH03edI-8" target="rx__fQTCFpKlSlH03edI-10">
          <mxGeometry relative="1" as="geometry" />
        </mxCell>
        <mxCell id="rx__fQTCFpKlSlH03edI-15" style="edgeStyle=orthogonalEdgeStyle;rounded=0;orthogonalLoop=1;jettySize=auto;html=1;exitX=0;exitY=0.5;exitDx=0;exitDy=0;exitPerimeter=0;entryX=0.5;entryY=0;entryDx=0;entryDy=0;entryPerimeter=0;" edge="1" parent="1" source="rx__fQTCFpKlSlH03edI-8" target="rx__fQTCFpKlSlH03edI-14">
          <mxGeometry relative="1" as="geometry" />
        </mxCell>
        <mxCell id="rx__fQTCFpKlSlH03edI-8" value="SE media &amp;gt;= 7,0" style="strokeWidth=2;html=1;shape=mxgraph.flowchart.decision;whiteSpace=wrap;" vertex="1" parent="1">
          <mxGeometry x="316.25" y="690" width="147.5" height="115" as="geometry" />
        </mxCell>
        <mxCell id="rx__fQTCFpKlSlH03edI-10" value="&lt;span style=&quot;font-size: 17px;&quot;&gt;&quot;Aprovado!&quot;&lt;/span&gt;" style="strokeWidth=2;html=1;shape=mxgraph.flowchart.display;whiteSpace=wrap;" vertex="1" parent="1">
          <mxGeometry x="390" y="870" width="210" height="60" as="geometry" />
        </mxCell>
        <mxCell id="rx__fQTCFpKlSlH03edI-12" value="V" style="text;html=1;align=center;verticalAlign=middle;resizable=0;points=[];autosize=1;strokeColor=none;fillColor=none;" vertex="1" parent="1">
          <mxGeometry x="463" y="715" width="45" height="30" as="geometry" />
        </mxCell>
        <mxCell id="rx__fQTCFpKlSlH03edI-14" value="&lt;span style=&quot;font-size: 17px;&quot;&gt;&quot;Reprovado!&quot;&lt;/span&gt;" style="strokeWidth=2;html=1;shape=mxgraph.flowchart.display;whiteSpace=wrap;" vertex="1" parent="1">
          <mxGeometry x="150" y="870" width="210" height="60" as="geometry" />
        </mxCell>
        <mxCell id="rx__fQTCFpKlSlH03edI-16" value="F" style="text;html=1;align=center;verticalAlign=middle;resizable=0;points=[];autosize=1;strokeColor=none;fillColor=none;" vertex="1" parent="1">
          <mxGeometry x="223" y="715" width="45" height="30" as="geometry" />
        </mxCell>
      </root>
    </mxGraphModel>
  </diagram>
</mxfile>
